<svg version="1.1" xmlns="http://www.w3.org/2000/svg" style="display: block;" viewBox="0 0 2048 2048" width="1024" height="1024" preserveAspectRatio="none">
<path transform="translate(0,0)" fill="rgb(231,230,230)" d="M 0 0 L 2048 0 L 2048 2048 L 0 2048 L 0 0 z"/>
<path transform="translate(0,0)" fill="rgb(0,0,0)" d="M 1019.61 699.402 C 1029.78 698.581 1040 699.748 1049.72 702.838 C 1068.1 708.507 1085.47 720.476 1102.35 729.995 L 1186.33 777.63 L 1254.5 816.398 C 1268.11 824.108 1282.64 831.363 1295.5 840.481 C 1344.26 874.107 1311.07 950.616 1253.69 937.097 C 1236.89 933.138 1200.09 909.117 1184.34 900.044 L 1076.37 838.24 C 1051.71 824.334 1031.8 805.977 1001.68 822.109 C 970.545 838.779 940.109 856.734 909.333 874.069 C 889.519 885.229 869.13 895.803 850.124 908.256 C 839.357 915.31 838.089 926.982 837 938.771 C 837.129 996.537 836.612 1054.24 837.034 1112 C 837.133 1125.49 843.909 1134.25 854.959 1141.83 C 872.794 1152.82 891.524 1162.82 909.771 1173.24 L 966.993 1205.89 C 980.789 1213.8 996.856 1224.81 1011.87 1229.22 C 1038.52 1237.04 1070.44 1213.18 1093.12 1200.22 C 1117.82 1186.03 1142.61 1172.02 1167.51 1158.18 C 1190.46 1144.95 1213.6 1132.03 1236.77 1119.2 C 1254.5 1109.39 1276.82 1107.34 1294.68 1118.12 C 1306.58 1125.23 1314.99 1136.97 1317.91 1150.52 C 1320.89 1164.96 1318.1 1180 1310.13 1192.41 C 1299.99 1208.5 1274.14 1219.99 1257.74 1229.46 C 1230.97 1244.87 1204.11 1260.09 1177.14 1275.14 C 1151.1 1289.8 1063.74 1343.34 1040.07 1348.37 C 1026.11 1351.3 1011.62 1350.3 998.191 1345.49 C 980.307 1339.08 933.459 1310.14 915.057 1299.72 C 882.051 1281.41 849.264 1262.71 816.701 1243.61 C 799.386 1233.63 782.044 1223.91 765.093 1213.33 C 728.686 1190.59 730.603 1163.11 730.604 1125.22 L 730.639 1057.98 L 730.266 946.741 C 730.063 853.788 726.637 856.868 807.218 810.543 L 889.436 763.694 L 948.967 729.674 C 971.844 716.532 992.808 702.005 1019.61 699.402 z"/>
<path transform="translate(0,0)" fill="rgb(0,0,0)" d="M 1013.89 478.335 C 1018.58 477.762 1026.15 477.693 1030.87 477.92 C 1040.56 478.339 1050.1 480.421 1059.09 484.076 C 1079.04 492.322 1215.09 567.27 1223.32 577.457 C 1229.88 585.573 1227.62 656.603 1226.86 670.588 C 1211.37 695.657 1192.52 678.98 1173.8 668.524 C 1149.08 654.827 1124.48 640.934 1099.99 626.847 C 1023.11 582.638 1027.93 583.196 950.474 626.602 L 838.468 690.042 L 715.871 758.739 C 698.819 768.49 681.303 778.276 664.771 788.338 C 649.277 797.769 643.495 812.721 643.025 829.882 C 642.359 854.223 642.65 879.177 642.651 903.498 L 642.743 1043.92 L 642.804 1159.25 C 642.807 1180.72 641.044 1213.58 645.092 1233.68 C 649.472 1255.43 673.375 1265.99 691.499 1276.16 C 733.586 1299.75 748.785 1294.88 743.95 1347.54 C 742.631 1361.9 745.74 1380.14 743.96 1395.71 C 742.282 1410.4 731.847 1418.69 716.976 1412.72 C 672.188 1386.25 622.757 1361.25 579.571 1332.7 C 529.118 1299.35 535.683 1247.29 535.574 1195.6 L 535.588 1055.73 L 535.412 883.893 C 535.269 853.213 533.484 815.615 536.454 785.403 C 542.626 722.603 602.715 700.205 650.936 673.216 L 769.68 606.161 L 898.442 533.905 C 927.774 517.41 982.313 483.148 1013.89 478.335 z"/>
<path transform="translate(0,0)" fill="rgb(0,0,0)" d="M 1446.24 1060.3 C 1460.73 1059.33 1478.81 1057.95 1491.99 1064.84 C 1501.48 1069.79 1508.29 1078.59 1511.27 1088.81 C 1515.14 1102.11 1514.64 1244.54 1512.13 1262.36 C 1510.21 1275.48 1505.86 1288.13 1499.3 1299.66 C 1479.2 1334.7 1433.94 1354.78 1399.5 1374 L 1291.12 1434.92 L 1131.42 1525.29 C 1111.72 1536.28 1067.04 1562.97 1047.97 1568.02 C 1032.28 1572.11 1015.8 1572.11 1000.1 1568.02 C 979.389 1562.65 951.231 1545.46 932.162 1534.45 L 873.621 1500.55 C 861.364 1493.42 829.488 1479.77 824.936 1465.78 C 821.68 1455.78 820.6 1379.53 824.946 1372.15 C 828.709 1365.76 836.349 1364.21 843.013 1362.73 C 852.916 1365.3 869.141 1375.73 878.573 1381.16 L 958.864 1427.08 C 992.404 1446.1 1018.07 1466.62 1057.15 1445.11 C 1078.71 1433.25 1100.2 1420.76 1121.63 1408.64 L 1240.39 1342.41 C 1272.99 1324.65 1305.43 1306.6 1337.71 1288.26 C 1354.05 1279.16 1371.22 1270.12 1387 1260.18 C 1409.14 1246.25 1407.59 1217.52 1407.53 1195.21 L 1407.31 1136.97 C 1407.1 1103.9 1403.41 1067.78 1446.24 1060.3 z"/>
<path transform="translate(0,0)" fill="rgb(0,0,0)" d="M 1319.17 634.164 C 1321.25 633.961 1323.38 633.726 1325.47 633.833 C 1336.44 634.392 1451.45 701.543 1465.37 710.813 C 1473.09 715.95 1480.35 721.736 1486.69 728.518 C 1498.18 740.802 1507.09 756.248 1510.99 772.679 C 1516.32 795.154 1513.45 839.828 1513.44 865.034 C 1513.43 891.273 1514.53 917.97 1513.37 944.145 C 1512.61 961.233 1507.8 972.393 1495.12 984.025 C 1480.73 994.818 1460.93 994.338 1443.85 992.362 C 1428.99 990.643 1415.4 978.146 1410.6 964.344 C 1405.95 950.948 1407.21 937.776 1407.14 923.865 C 1405.93 898.596 1410.35 834.439 1405.05 813.934 C 1403.3 806.946 1399.69 800.563 1394.61 795.464 C 1377.25 777.727 1309.18 755.516 1307.85 733.116 C 1306.43 709.186 1307.47 672.689 1307.77 647.417 C 1307.84 641.557 1314.79 636.829 1319.17 634.164 z"/>
</svg>